<?xml version="1.0" encoding="UTF-8"?>
<svg width="27px" height="27px" viewBox="0 0 27 27" version="1.1" xmlns="http://www.w3.org/2000/svg" xmlns:xlink="http://www.w3.org/1999/xlink">
    <!-- Generator: Sketch 57.1 (83088) - https://sketch.com -->
    <title>Artboard</title>
    <desc>Created with Sketch.</desc>
    <g id="Artboard" stroke="none" stroke-width="1" fill="none" fill-rule="evenodd">
        <g id="search" transform="translate(5.000000, 4.000000)" fill="#D6D6D6" fill-rule="nonzero">
            <path d="M17.5,17.4 L12.7,12.6 C15.2,9.6 14.9,5.2 11.9,2.6 C8.9,7.88258347e-15 4.5,0.4 1.9,3.4 C-0.7,6.4 -0.3,10.8 2.7,13.4 C5.3,15.7 9.2,15.7 11.9,13.4 L16.7,18.2 C16.9,18.4 17.3,18.4 17.5,18.2 C17.7,18 17.8,17.7 17.5,17.4 C17.5,17.4 17.5,17.4 17.5,17.4 L17.5,17.4 Z M1.4,8.1 C1.4,4.8 4.1,2.2 7.4,2.2 C10.7,2.2 13.3,4.9 13.3,8.2 C13.3,11.5 10.6,14.1 7.4,14.1 C4.1,14 1.4,11.3 1.4,8.1 Z" id="Shape"></path>
        </g>
    </g>
</svg>