<?xml version="1.0" encoding="utf-8"?>
<!-- Generator: Adobe Illustrator 22.1.0, SVG Export Plug-In . SVG Version: 6.00 Build 0)  -->
<svg version="1.1" id="圖層_1" xmlns="http://www.w3.org/2000/svg" xmlns:xlink="http://www.w3.org/1999/xlink" x="0px" y="0px"
	 viewBox="0 0 18 88" style="enable-background:new 0 0 18 88;" xml:space="preserve">
<style type="text/css">
	.st0{fill:#86868B;}
</style>
<title>image_large_1</title>
<g>
	<path class="st0" d="M17.5,73.4l-4.8-4.8c2.5-3,2.2-7.4-0.8-10s-7.4-2.2-10,0.8s-2.2,7.4,0.8,10c2.6,2.3,6.5,2.3,9.2,0l4.8,4.8
		c0.2,0.2,0.6,0.2,0.8,0S17.8,73.7,17.5,73.4C17.5,73.4,17.5,73.4,17.5,73.4L17.5,73.4z M1.4,64.1c0-3.3,2.7-5.9,6-5.9
		s5.9,2.7,5.9,6c0,3.3-2.7,5.9-5.9,5.9C4.1,70,1.4,67.3,1.4,64.1z"/>
</g>
</svg>
