<?xml version="1.0" encoding="UTF-8"?>
<svg width="42px" height="42px" viewBox="0 0 42 42" version="1.1" xmlns="http://www.w3.org/2000/svg" xmlns:xlink="http://www.w3.org/1999/xlink">
    <!-- Generator: Sketch 57.1 (83088) - https://sketch.com -->
    <title>Artboard</title>
    <desc>Created with Sketch.</desc>
    <g id="Artboard" stroke="none" stroke-width="1" fill="none" fill-rule="evenodd">
        <g id="shoppingCart" transform="translate(12.000000, -1.000000)">
            <rect id="boundingbox" x="0" y="0" width="17" height="44"></rect>
            <path d="M14.5,14 L12.712,14 C12.527113,11.8112124 10.6965824,10.1287879 8.5,10.1287879 C6.30341756,10.1287879 4.472887,11.8112124 4.288,14 L2.5,14 C1.11928813,14 0,15.1192881 0,16.5 L0,27.5 C0,28.8807119 1.11928813,30 2.5,30 L14.5,30 C15.8807119,30 17,28.8807119 17,27.5 L17,16.5 C17,15.1192881 15.8807119,14 14.5,14 Z M8.5,11.125 C10.1448351,11.1300997 11.5253591,12.3657805 11.712,14 L5.288,14 C5.47464094,12.3657805 6.85516495,11.1300997 8.5,11.125 L8.5,11.125 Z M16,27.5 C16,28.3284271 15.3284271,29 14.5,29 L2.5,29 C1.67157288,29 1,28.3284271 1,27.5 L1,16.5 C1,15.6715729 1.67157288,15 2.5,15 L14.5,15 C15.3284271,15 16,15.6715729 16,16.5 L16,27.5 Z" id="bag" fill="#FFFFFF" fill-rule="nonzero"></path>
        </g>
    </g>
</svg>