<?xml version="1.0" encoding="UTF-8"?>
<svg width="23px" height="23px" viewBox="0 0 23 23" version="1.1" xmlns="http://www.w3.org/2000/svg" xmlns:xlink="http://www.w3.org/1999/xlink">
    <!-- Generator: Sketch 57.1 (83088) - https://sketch.com -->
    <title>Artboard</title>
    <desc>Created with Sketch.</desc>
    <g id="Artboard" stroke="none" stroke-width="1" fill="none" fill-rule="evenodd">
        <g id="shoppingCart" transform="translate(3.000000, 1.000000)" fill="#FFFFFF" fill-rule="nonzero">
            <path d="M14.5,4 L12.712,4 C12.527113,1.81121239 10.6965824,0.128787858 8.5,0.128787858 C6.30341756,0.128787858 4.472887,1.81121239 4.288,4 L2.5,4 C1.11928813,4 0,5.11928813 0,6.5 L0,17.5 C0,18.8807119 1.11928813,20 2.5,20 L14.5,20 C15.8807119,20 17,18.8807119 17,17.5 L17,6.5 C17,5.11928813 15.8807119,4 14.5,4 Z M8.5,1.125 C10.1448351,1.13009972 11.5253591,2.36578046 11.712,4 L5.288,4 C5.47464094,2.36578046 6.85516495,1.13009972 8.5,1.125 L8.5,1.125 Z M16,17.5 C16,18.3284271 15.3284271,19 14.5,19 L2.5,19 C1.67157288,19 1,18.3284271 1,17.5 L1,6.5 C1,5.67157288 1.67157288,5 2.5,5 L14.5,5 C15.3284271,5 16,5.67157288 16,6.5 L16,17.5 Z" id="bag"></path>
        </g>
    </g>
</svg>